<svg xmlns="http://www.w3.org/2000/svg" xmlns:xlink="http://www.w3.org/1999/xlink" width="500" zoomAndPan="magnify" viewBox="0 0 375 74.999997" height="100" preserveAspectRatio="xMidYMid meet" version="1.0"><defs><g></g><clipPath id="e98aeb4f95"><path d="M 0.441406 15 L 33 15 L 33 46 L 0.441406 46 Z M 0.441406 15" clip-rule="nonzero"></path></clipPath><clipPath id="50400f781f"><rect x="0" width="361" y="0" height="58"></rect></clipPath></defs><rect x="-37.5" width="450" fill="#ffffff" y="-7.5" height="89.999996" fill-opacity="1"></rect><rect x="-37.5" width="450" fill="#ffffff" y="-7.5" height="89.999996" fill-opacity="1"></rect><g transform="matrix(1, 0, 0, 1, 7, 6)"><g clip-path="url(#50400f781f)"><g clip-path="url(#e98aeb4f95)"><g fill="#000000" fill-opacity="1"><g transform="translate(0.500007, 45.545905)"><g><path d="M 4.9375 -7.09375 C 4.125 -5.507812 3.734375 -4.140625 3.765625 -2.984375 C 3.796875 -1.828125 4.210938 -0.832031 5.015625 0 L 0.4375 0 L 13.796875 -27.078125 C 13.515625 -27.566406 13.097656 -27.960938 12.546875 -28.265625 C 11.992188 -28.578125 11.453125 -28.859375 10.921875 -29.109375 C 10.390625 -29.367188 9.960938 -29.660156 9.640625 -29.984375 L 16.65625 -29.984375 L 32.1875 0 L 27.46875 0 L 21.9375 -10.953125 L 6.796875 -10.953125 Z M 14.1875 -26.34375 L 7.09375 -11.59375 L 21.625 -11.59375 Z M 14.1875 -26.34375"></path></g></g></g></g><g fill="#000000" fill-opacity="1"><g transform="translate(32.772727, 45.545905)"><g></g></g></g><g fill="#000000" fill-opacity="1"><g transform="translate(42.341455, 45.545905)"><g><path d="M 39.453125 -44.78125 C 40.003906 -44.78125 40.269531 -44.351562 40.25 -43.5 C 40.238281 -42.65625 39.96875 -41.5625 39.4375 -40.21875 C 38.90625 -38.875 38.125 -37.441406 37.09375 -35.921875 C 36.070312 -34.410156 34.835938 -32.976562 33.390625 -31.625 C 31.953125 -30.269531 30.3125 -29.148438 28.46875 -28.265625 C 26.625 -27.390625 24.601562 -26.925781 22.40625 -26.875 L 19.765625 -26.828125 L 10.03125 0 L 6.234375 0 L 15.921875 -26.6875 L 5.96875 -26.6875 C 4.269531 -26.6875 3.050781 -26.535156 2.3125 -26.234375 C 1.582031 -25.929688 1.28125 -25.554688 1.40625 -25.109375 C 1.53125 -24.660156 2.007812 -24.210938 2.84375 -23.765625 C 3.6875 -23.328125 4.816406 -22.929688 6.234375 -22.578125 L 9.296875 -21.84375 L 9.390625 -21.59375 L 5.796875 -22.375 C 4.210938 -22.625 2.957031 -23.050781 2.03125 -23.65625 C 1.113281 -24.269531 0.507812 -24.941406 0.21875 -25.671875 C -0.0703125 -26.410156 -0.0820312 -27.117188 0.1875 -27.796875 C 0.46875 -28.472656 0.992188 -29.023438 1.765625 -29.453125 C 2.546875 -29.890625 3.554688 -30.109375 4.796875 -30.109375 L 24.65625 -29.984375 C 24.832031 -29.984375 25.238281 -29.992188 25.875 -30.015625 C 26.507812 -30.046875 27.25 -30.113281 28.09375 -30.21875 C 28.945312 -30.320312 29.8125 -30.503906 30.6875 -30.765625 C 31.570312 -31.023438 32.351562 -31.390625 33.03125 -31.859375 C 33.707031 -32.335938 34.160156 -32.9375 34.390625 -33.65625 C 34.742188 -34.695312 35.078125 -35.851562 35.390625 -37.125 C 35.703125 -38.394531 36.039062 -39.613281 36.40625 -40.78125 C 36.769531 -41.945312 37.195312 -42.90625 37.6875 -43.65625 C 38.175781 -44.40625 38.765625 -44.78125 39.453125 -44.78125 Z M 39.453125 -44.78125"></path></g></g></g><g fill="#000000" fill-opacity="1"><g transform="translate(66.56705, 45.545905)"><g><path d="M 8.875 -28.03125 C 9.101562 -28.664062 9.507812 -29.207031 10.09375 -29.65625 C 10.6875 -30.101562 11.300781 -30.328125 11.9375 -30.328125 C 12.570312 -30.328125 13.035156 -30.101562 13.328125 -29.65625 C 13.617188 -29.207031 13.644531 -28.664062 13.40625 -28.03125 C 13.175781 -27.394531 12.757812 -26.859375 12.15625 -26.421875 C 11.550781 -25.992188 10.929688 -25.78125 10.296875 -25.78125 C 9.660156 -25.78125 9.210938 -25.992188 8.953125 -26.421875 C 8.691406 -26.859375 8.664062 -27.394531 8.875 -28.03125 Z M 1.859375 -17.90625 C 2.804688 -19.695312 3.820312 -20.910156 4.90625 -21.546875 C 5.988281 -22.179688 6.960938 -22.351562 7.828125 -22.0625 C 8.691406 -21.769531 9.296875 -21.132812 9.640625 -20.15625 C 9.992188 -19.175781 9.925781 -17.953125 9.4375 -16.484375 L 5.328125 -5.1875 C 4.597656 -3.40625 4.238281 -2.125 4.25 -1.34375 C 4.269531 -0.5625 4.539062 -0.191406 5.0625 -0.234375 C 5.582031 -0.273438 6.226562 -0.65625 7 -1.375 C 7.78125 -2.101562 8.5625 -3.085938 9.34375 -4.328125 L 11.03125 -6.96875 L 11.296875 -6.96875 L 9.4375 -3.84375 C 8.476562 -2.09375 7.457031 -0.890625 6.375 -0.234375 C 5.300781 0.410156 4.320312 0.585938 3.4375 0.296875 C 2.5625 0.015625 1.945312 -0.613281 1.59375 -1.59375 C 1.25 -2.582031 1.320312 -3.8125 1.8125 -5.28125 L 5.921875 -16.578125 C 6.648438 -18.359375 7.003906 -19.640625 6.984375 -20.421875 C 6.972656 -21.203125 6.710938 -21.566406 6.203125 -21.515625 C 5.703125 -21.472656 5.0625 -21.09375 4.28125 -20.375 C 3.5 -19.65625 2.722656 -18.675781 1.953125 -17.4375 L 0.265625 -14.796875 L 0 -14.796875 Z M 1.859375 -17.90625"></path></g></g></g><g fill="#000000" fill-opacity="1"><g transform="translate(78.766613, 45.545905)"><g><path d="M 42.65625 -3.84375 C 41.707031 -2.09375 40.691406 -0.890625 39.609375 -0.234375 C 38.523438 0.410156 37.539062 0.585938 36.65625 0.296875 C 35.78125 0.015625 35.171875 -0.613281 34.828125 -1.59375 C 34.484375 -2.582031 34.554688 -3.8125 35.046875 -5.28125 L 38.296875 -14.140625 C 38.835938 -15.671875 38.992188 -16.96875 38.765625 -18.03125 C 38.535156 -19.101562 38.007812 -19.882812 37.1875 -20.375 C 36.363281 -20.863281 35.335938 -20.992188 34.109375 -20.765625 C 32.890625 -20.535156 31.550781 -19.894531 30.09375 -18.84375 C 28.632812 -17.789062 27.171875 -16.269531 25.703125 -14.28125 L 22.40625 -5.1875 C 21.6875 -3.40625 21.332031 -2.125 21.34375 -1.34375 C 21.363281 -0.5625 21.632812 -0.191406 22.15625 -0.234375 C 22.675781 -0.273438 23.320312 -0.65625 24.09375 -1.375 C 24.875 -2.101562 25.65625 -3.085938 26.4375 -4.328125 L 28.125 -6.96875 L 28.375 -6.96875 L 26.515625 -3.84375 C 25.566406 -2.09375 24.550781 -0.890625 23.46875 -0.234375 C 22.382812 0.410156 21.398438 0.585938 20.515625 0.296875 C 19.640625 0.015625 19.03125 -0.613281 18.6875 -1.59375 C 18.34375 -2.582031 18.414062 -3.8125 18.90625 -5.28125 L 22.15625 -14.140625 C 22.726562 -15.734375 22.867188 -17.066406 22.578125 -18.140625 C 22.296875 -19.222656 21.6875 -19.988281 20.75 -20.4375 C 19.8125 -20.882812 18.671875 -20.957031 17.328125 -20.65625 C 15.984375 -20.351562 14.539062 -19.609375 13 -18.421875 C 11.457031 -17.242188 9.9375 -15.546875 8.4375 -13.328125 L 3.5 0 L 0 0 L 6.0625 -16.578125 C 6.78125 -18.359375 7.128906 -19.640625 7.109375 -20.421875 C 7.097656 -21.203125 6.835938 -21.566406 6.328125 -21.515625 C 5.828125 -21.472656 5.1875 -21.09375 4.40625 -20.375 C 3.632812 -19.65625 2.859375 -18.675781 2.078125 -17.4375 L 0.390625 -14.796875 L 0.125 -14.796875 L 1.984375 -17.90625 C 2.941406 -19.695312 3.957031 -20.910156 5.03125 -21.546875 C 6.113281 -22.179688 7.085938 -22.351562 7.953125 -22.0625 C 8.828125 -21.769531 9.4375 -21.132812 9.78125 -20.15625 C 10.125 -19.175781 10.050781 -17.953125 9.5625 -16.484375 L 8.65625 -13.9375 C 10.300781 -16.300781 12.03125 -18.128906 13.84375 -19.421875 C 15.664062 -20.722656 17.414062 -21.539062 19.09375 -21.875 C 20.78125 -22.207031 22.242188 -22.132812 23.484375 -21.65625 C 24.734375 -21.175781 25.601562 -20.363281 26.09375 -19.21875 C 26.582031 -18.082031 26.523438 -16.664062 25.921875 -14.96875 C 27.535156 -17.101562 29.210938 -18.738281 30.953125 -19.875 C 32.703125 -21.019531 34.363281 -21.722656 35.9375 -21.984375 C 37.507812 -22.242188 38.859375 -22.117188 39.984375 -21.609375 C 41.109375 -21.109375 41.878906 -20.28125 42.296875 -19.125 C 42.710938 -17.96875 42.628906 -16.566406 42.046875 -14.921875 L 38.546875 -5.1875 C 37.828125 -3.40625 37.472656 -2.125 37.484375 -1.34375 C 37.503906 -0.5625 37.769531 -0.191406 38.28125 -0.234375 C 38.800781 -0.273438 39.453125 -0.65625 40.234375 -1.375 C 41.015625 -2.101562 41.796875 -3.085938 42.578125 -4.328125 L 44.265625 -6.96875 L 44.515625 -6.96875 Z M 42.65625 -3.84375"></path></g></g></g><g fill="#000000" fill-opacity="1"><g transform="translate(122.849587, 45.545905)"><g><path d="M 21.984375 -21.71875 C 22.867188 -21.488281 23.519531 -21.191406 23.9375 -20.828125 C 24.363281 -20.472656 24.625 -20.097656 24.71875 -19.703125 C 24.820312 -19.316406 24.84375 -18.972656 24.78125 -18.671875 C 24.726562 -18.367188 24.6875 -18.171875 24.65625 -18.078125 C 24.34375 -17.160156 23.789062 -16.484375 23 -16.046875 C 22.207031 -15.617188 21.390625 -15.335938 20.546875 -15.203125 C 19.710938 -15.078125 19.050781 -15 18.5625 -14.96875 L 6.015625 -14.96875 C 5.203125 -13.550781 4.660156 -12.035156 4.390625 -10.421875 C 4.117188 -8.804688 4.160156 -7.300781 4.515625 -5.90625 C 4.878906 -4.507812 5.628906 -3.363281 6.765625 -2.46875 C 7.910156 -1.570312 9.492188 -1.125 11.515625 -1.125 C 12.347656 -1.125 13.375 -1.328125 14.59375 -1.734375 C 15.820312 -2.140625 17.097656 -2.75 18.421875 -3.5625 C 19.753906 -4.382812 20.984375 -5.414062 22.109375 -6.65625 L 22.375 -6.65625 C 22.375 -6.65625 22.160156 -6.390625 21.734375 -5.859375 C 21.316406 -5.328125 20.65625 -4.6875 19.75 -3.9375 C 18.84375 -3.1875 17.65625 -2.453125 16.1875 -1.734375 C 14.445312 -0.835938 12.863281 -0.222656 11.4375 0.109375 C 10.007812 0.441406 8.660156 0.609375 7.390625 0.609375 C 5.398438 0.609375 3.8125 0.15625 2.625 -0.75 C 1.445312 -1.664062 0.671875 -2.84375 0.296875 -4.28125 C -0.078125 -5.726562 -0.078125 -7.269531 0.296875 -8.90625 C 0.671875 -10.550781 1.410156 -12.109375 2.515625 -13.578125 C 2.515625 -13.578125 2.800781 -13.914062 3.375 -14.59375 C 3.945312 -15.28125 4.773438 -16.101562 5.859375 -17.0625 C 6.941406 -18.03125 8.25 -18.960938 9.78125 -19.859375 C 11.3125 -20.753906 13.023438 -21.429688 14.921875 -21.890625 C 15.554688 -22.035156 16.488281 -22.144531 17.71875 -22.21875 C 18.945312 -22.289062 20.367188 -22.125 21.984375 -21.71875 Z M 18.21875 -16.015625 C 19.25 -16.097656 19.945312 -16.382812 20.3125 -16.875 C 20.675781 -17.363281 20.789062 -17.914062 20.65625 -18.53125 C 20.53125 -19.15625 20.222656 -19.671875 19.734375 -20.078125 C 19.128906 -20.597656 18.359375 -20.914062 17.421875 -21.03125 C 16.484375 -21.144531 15.492188 -21.109375 14.453125 -20.921875 C 13.410156 -20.734375 12.398438 -20.421875 11.421875 -19.984375 C 10.441406 -19.554688 9.601562 -19.039062 8.90625 -18.4375 C 7.894531 -17.625 7.046875 -16.671875 6.359375 -15.578125 L 15.921875 -15.875 Z M 18.21875 -16.015625"></path></g></g></g><g fill="#000000" fill-opacity="1"><g transform="translate(147.68141, 45.545905)"><g></g></g></g><g fill="#000000" fill-opacity="1"><g transform="translate(156.343877, 45.545905)"><g><path d="M 3.28125 -29.984375 L 7.1875 -29.984375 L 7.1875 -0.515625 C 9.976562 -0.429688 12.421875 -0.828125 14.515625 -1.703125 C 16.609375 -2.585938 18.507812 -3.820312 20.21875 -5.40625 C 21.9375 -6.988281 23.59375 -8.765625 25.1875 -10.734375 L 19.734375 0 L 3.28125 0 Z M 3.28125 -29.984375"></path></g></g></g><g fill="#000000" fill-opacity="1"><g transform="translate(182.387115, 45.545905)"><g><path d="M 2.34375 -4.453125 C 2.476562 -7.972656 2.550781 -11.492188 2.5625 -15.015625 C 2.582031 -18.535156 2.507812 -22.039062 2.34375 -25.53125 L 2.125 -29.984375 L 6.28125 -29.984375 L 6.015625 -25.53125 C 5.835938 -18.40625 5.835938 -11.378906 6.015625 -4.453125 L 6.28125 0 L 2.125 0 Z M 2.34375 -4.453125"></path></g></g></g><g fill="#000000" fill-opacity="1"><g transform="translate(190.347133, 45.545905)"><g><path d="M 3.59375 0 C 3.738281 -4.988281 3.773438 -9.984375 3.703125 -14.984375 C 3.628906 -19.992188 3.59375 -24.992188 3.59375 -29.984375 L 7.65625 -29.984375 L 7.65625 -17.953125 L 28.171875 -29.984375 L 29.640625 -29.984375 L 8.171875 -17.3125 L 27.34375 0 L 22.1875 0 L 7.65625 -13.5 L 7.65625 0 Z M 3.59375 0"></path></g></g></g><g fill="#000000" fill-opacity="1"><g transform="translate(219.072392, 45.545905)"><g><path d="M 3.03125 -29.984375 L 21.765625 -29.984375 L 27.6875 -18.296875 C 27.019531 -19.023438 26.347656 -19.867188 25.671875 -20.828125 C 24.992188 -21.796875 24.1875 -22.785156 23.25 -23.796875 C 22.3125 -24.804688 21.144531 -25.734375 19.75 -26.578125 C 18.351562 -27.429688 16.613281 -28.125 14.53125 -28.65625 C 12.457031 -29.195312 9.921875 -29.453125 6.921875 -29.421875 L 6.921875 -15.265625 L 20.078125 -15.265625 L 20.078125 -14.625 L 6.921875 -14.625 L 6.921875 -0.515625 C 9.722656 -0.429688 12.203125 -0.828125 14.359375 -1.703125 C 16.523438 -2.585938 18.492188 -3.820312 20.265625 -5.40625 C 22.046875 -6.988281 23.726562 -8.765625 25.3125 -10.734375 L 19.859375 0 L 3.03125 0 Z M 3.03125 -29.984375"></path></g></g></g><g fill="#000000" fill-opacity="1"><g transform="translate(251.950844, 45.545905)"><g></g></g></g><g fill="#000000" fill-opacity="1"><g transform="translate(261.511526, 45.545905)"><g><path d="M 29.375 -19.8125 C 29.0625 -20.820312 28.632812 -21.878906 28.09375 -22.984375 C 27.5625 -24.097656 26.9375 -25.140625 26.21875 -26.109375 C 25.5 -27.078125 24.679688 -27.863281 23.765625 -28.46875 C 22.859375 -29.070312 21.859375 -29.375 20.765625 -29.375 L 17.265625 -29.375 L 17.265625 0 L 13.453125 0 L 13.453125 -29.375 L 10.03125 -29.375 C 8.9375 -29.375 7.9375 -29.070312 7.03125 -28.46875 C 6.125 -27.863281 5.304688 -27.082031 4.578125 -26.125 C 3.859375 -25.175781 3.234375 -24.144531 2.703125 -23.03125 C 2.171875 -21.925781 1.742188 -20.867188 1.421875 -19.859375 L 1.25 -19.859375 L 3.078125 -29.984375 L 27.6875 -29.984375 L 29.546875 -19.859375 Z M 29.375 -19.8125"></path></g></g></g><g fill="#000000" fill-opacity="1"><g transform="translate(293.524723, 45.545905)"><g><path d="M 0.5625 0 C 0.675781 -4.84375 0.738281 -9.75 0.75 -14.71875 C 0.769531 -19.695312 0.707031 -24.785156 0.5625 -29.984375 L 4.40625 -29.984375 L 4.40625 -15.359375 L 22.625 -15.359375 L 22.625 -29.984375 L 26.5625 -29.984375 C 26.332031 -24.847656 26.222656 -19.785156 26.234375 -14.796875 C 26.253906 -9.804688 26.363281 -4.875 26.5625 0 L 22.625 0 L 22.625 -14.703125 L 4.40625 -14.703125 L 4.40625 0 Z M 0.5625 0"></path></g></g></g><g fill="#000000" fill-opacity="1"><g transform="translate(323.677756, 45.545905)"><g><path d="M 2.34375 -4.453125 C 2.476562 -7.972656 2.550781 -11.492188 2.5625 -15.015625 C 2.582031 -18.535156 2.507812 -22.039062 2.34375 -25.53125 L 2.125 -29.984375 L 6.28125 -29.984375 L 6.015625 -25.53125 C 5.835938 -18.40625 5.835938 -11.378906 6.015625 -4.453125 L 6.28125 0 L 2.125 0 Z M 2.34375 -4.453125"></path></g></g></g><g fill="#000000" fill-opacity="1"><g transform="translate(332.935653, 45.545905)"><g><path d="M 15.359375 0.609375 C 13.140625 0.640625 11.316406 0.550781 9.890625 0.34375 C 8.460938 0.144531 7.242188 -0.117188 6.234375 -0.453125 C 5.222656 -0.785156 4.179688 -1.125 3.109375 -1.46875 L 1.734375 -13.0625 L 1.984375 -13.0625 C 2.242188 -10.46875 2.800781 -8.316406 3.65625 -6.609375 C 4.507812 -4.910156 5.554688 -3.578125 6.796875 -2.609375 C 8.035156 -1.648438 9.394531 -0.96875 10.875 -0.5625 C 12.363281 -0.15625 13.859375 0.03125 15.359375 0 C 16.890625 -0.03125 18.148438 -0.234375 19.140625 -0.609375 C 20.140625 -0.984375 20.910156 -1.453125 21.453125 -2.015625 C 22.003906 -2.578125 22.390625 -3.160156 22.609375 -3.765625 C 22.828125 -4.367188 22.9375 -4.929688 22.9375 -5.453125 C 22.9375 -6.578125 22.566406 -7.539062 21.828125 -8.34375 C 21.085938 -9.15625 20.101562 -9.867188 18.875 -10.484375 C 17.65625 -11.109375 16.316406 -11.691406 14.859375 -12.234375 C 13.398438 -12.785156 11.9375 -13.359375 10.46875 -13.953125 C 9 -14.546875 7.644531 -15.222656 6.40625 -15.984375 C 5.164062 -16.753906 4.171875 -17.65625 3.421875 -18.6875 C 2.671875 -19.726562 2.28125 -20.96875 2.25 -22.40625 C 2.25 -22.988281 2.382812 -23.71875 2.65625 -24.59375 C 2.9375 -25.476562 3.457031 -26.351562 4.21875 -27.21875 C 4.976562 -28.082031 6.085938 -28.820312 7.546875 -29.4375 C 9.003906 -30.0625 10.898438 -30.398438 13.234375 -30.453125 C 14.679688 -30.515625 16.082031 -30.507812 17.4375 -30.4375 C 18.789062 -30.363281 20.007812 -30.269531 21.09375 -30.15625 C 22.175781 -30.039062 23.035156 -29.929688 23.671875 -29.828125 C 24.304688 -29.734375 24.625 -29.6875 24.625 -29.6875 L 25.828125 -19.59375 L 25.609375 -19.59375 C 25.410156 -21.675781 24.90625 -23.265625 24.09375 -24.359375 C 23.289062 -25.453125 22.222656 -26.414062 20.890625 -27.25 C 19.628906 -28.0625 18.253906 -28.675781 16.765625 -29.09375 C 15.273438 -29.507812 13.800781 -29.722656 12.34375 -29.734375 C 10.894531 -29.753906 9.5625 -29.578125 8.34375 -29.203125 C 7.132812 -28.828125 6.175781 -28.265625 5.46875 -27.515625 C 4.757812 -26.765625 4.421875 -25.84375 4.453125 -24.75 C 4.515625 -23.507812 4.929688 -22.46875 5.703125 -21.625 C 6.484375 -20.789062 7.5 -20.070312 8.75 -19.46875 C 10.007812 -18.863281 11.378906 -18.304688 12.859375 -17.796875 C 14.347656 -17.296875 15.835938 -16.769531 17.328125 -16.21875 C 18.816406 -15.675781 20.1875 -15.035156 21.4375 -14.296875 C 22.6875 -13.566406 23.691406 -12.660156 24.453125 -11.578125 C 25.222656 -10.492188 25.625 -9.171875 25.65625 -7.609375 C 25.6875 -5.679688 25.222656 -4.117188 24.265625 -2.921875 C 23.316406 -1.722656 22.054688 -0.84375 20.484375 -0.28125 C 18.910156 0.28125 17.203125 0.578125 15.359375 0.609375 Z M 15.359375 0.609375"></path></g></g></g></g></g></svg>